<svg xmlns="http://www.w3.org/2000/svg" width="320" height="82.638" viewBox="0 0 320 82.638"><defs><style>.a{fill:#fff;}.a,.b,.c{fill-rule:evenodd;}.b,.d{fill:#103783;}.c,.e{fill:#fb9335;}.f{fill:#113884;}</style></defs><g transform="translate(-183.418 -300.241)"><path class="a" d="M253.649,334.667a2.012,2.012,0,0,1-.192-.872c0-.878.52-1.591,1.162-1.591a.906.906,0,0,1,.2.024,2.6,2.6,0,0,0-1.558-.516l-12.622-.617c-1.32,4.781-4.043,6.823-7.462,6.823H221.439a4.073,4.073,0,0,1-2.584-.719l-1.111-.643c-.253-.146-.169-.605.556-.674l13.917-1.325c1.82-.174,3.787-3.414,3.408-5.636-.216-.048-.438-.09-.668-.126-8.108-1.279-25.749,4.719-33.9,4.892l4.311-1.9,5.751-7.375h-4.56l-6.654,6.176-.976.906-3.208-3.314c-.471-.487-.646-.508-1.385-.508H191.25l4.4,9.112-2.016.92-4.582,9.363h4.4l6.938-8.9c5.461.413,31.582,6.091,44.751,4.59,4.3-.489,6.464-1.016,8.322-4.295a6.694,6.694,0,0,0,3.943-2.078A7.882,7.882,0,0,0,253.649,334.667Zm-2.713,5.724a1.658,1.658,0,1,1,1.227-1.6A1.452,1.452,0,0,1,250.936,340.39Zm-29.751,2.38L196.4,379.813a4.507,4.507,0,0,1-2.231,1.614c.212.245,1.462.616,5.349,1.259,3.272.542,3.864-.127,4.743-1.178l23.855-28.559C232.078,348.21,222.645,342.894,221.185,342.77Zm10.736-16.07c5.746-.211,12.68-1.4,14.474-5.1l9.589-19.787c.24-.493.335-1.256-.564-1.35a23.826,23.826,0,0,0-6.83.051c-.332.057.773.894-.022,2.048Z" transform="translate(-2.854)"/><path class="b" d="M247.628,313.507l-4.087,8.433c-1.795,3.7-8.728,4.887-14.474,5.1L245.714,302.9a1.92,1.92,0,0,0,.121-.2c.011-.021.019-.042.029-.063.021-.044.041-.088.057-.131.009-.024.015-.047.023-.071.012-.039.023-.078.032-.116s.009-.047.013-.07.011-.074.014-.111,0-.043,0-.065c0-.037,0-.073,0-.109,0-.019,0-.038,0-.056,0-.039-.009-.078-.015-.116,0-.013,0-.026-.006-.038a3.383,3.383,0,0,0-.283-.736l-.005-.015a.4.4,0,0,1-.014-.045.089.089,0,0,1,0-.019.127.127,0,0,1,0-.03h0l-6.562,5.6a36.846,36.846,0,0,0-41.456,60.756l-6.34,14.5a4.507,4.507,0,0,0,2.231-1.614l24.784-37.043c1.46.124,10.893,5.44,6.932,10.179L208.67,373.152a36.845,36.845,0,0,0,38.958-59.645Zm2.978,25.291c-1.858,3.279-4.018,3.805-8.322,4.295-13.169,1.5-39.29-4.177-44.751-4.59l-6.938,8.9h-4.4l4.582-9.363,2.016-.92L188.4,328h3.084c.739,0,.915.021,1.385.508l3.208,3.314.976-.906,6.654-6.176h4.56l-5.751,7.375-4.311,1.9c8.154-.173,25.8-6.171,33.9-4.892.23.036.452.078.668.126.379,2.221-1.588,5.462-3.408,5.636l-13.917,1.325c-.726.069-.809.528-.556.674l1.111.643a4.073,4.073,0,0,0,2.584.719h11.741c3.42,0,6.142-2.043,7.462-6.823l12.622.617a2.6,2.6,0,0,1,1.558.517.906.906,0,0,0-.2-.024c-.642,0-1.162.713-1.162,1.591a2.012,2.012,0,0,0,.192.872,7.882,7.882,0,0,1,3.754,1.716A6.694,6.694,0,0,1,250.606,338.8Zm-2.524-1.273a1.658,1.658,0,1,0,1.227,1.6A1.452,1.452,0,0,0,248.082,337.525Z" transform="translate(0 -0.337)"/><path class="c" d="M246.4,323.988l.716-1.478c-1.775,3.494-6.025,3.43-9.186,2.931l10.644-20.491-16.648,24.136C237.668,328.875,244.6,327.691,246.4,323.988Zm-48.643,16.387-5.812,7.688-2.888,1.385h4.4l6.938-8.9Zm23.433,4.781L196.4,382.2c2.787-3.582,23.956-30.866,26.067-32.544,4.116,1.023,6.61,3.09,5.649,5.68C232.079,350.6,222.646,345.28,221.186,345.156Zm32.462-8.108-.852-.047a2,2,0,0,0-.331,2.025l1.842-.1,3.1-.163A7.88,7.88,0,0,0,253.647,337.049Zm.973-2.459h.2l-.016-.013-.016-.013a2.64,2.64,0,0,0-1.526-.49l-12.622-.617-.056.2-.007.023-.016.056-.043.142-.021.071-.044.141-.02.062-.045.137-.025.076-.039.111-.032.09-.039.11-.029.077-.051.136-.02.051-.073.184,0,.009-.071.17-.005.011-.024.056-.049.116-.035.078-.041.089-.045.1-.033.07-.047.1-.035.071-.046.09-.038.076-.045.084-.042.08-.043.079-.039.069-.05.089h0l-.084.143,0,0-.083.138,0,0-.043.069-.053.082-.038.058-.052.079-.051.076-.041.058-.056.08-.039.053-.054.074-.052.069-.044.057-.068.087-.027.032-.014.018-.045.054-.051.062-.1.114-.008.008-.09.1-.007.008-.059.064-.046.049-.056.058-.053.055-.065.064-.035.034-.069.066-.053.05-.054.049-.056.05-.059.052-.006.006-.1.083-.01.008-.108.088,0,0-.107.082,0,0-.074.055-.045.032-.062.045-.065.045-.047.032-.072.049-.057.037-.061.038-.064.04-.058.034-.066.039-.047.027-.083.046-.116.063h0l-.121.061h0l-.1.046-.026.012-.094.043-.035.015-.094.041-.034.013-.1.041-.022.009-.1.038-.038.014-.1.037-.124.04-.031.01-.1.031-.13.038-.1.026-.038.01-.1.024-.037.009-.1.022-.043.009-.1.021-.033.006-.1.018-.047.008-.1.016-.043.006-.1.015h-.006c2.673-.143,6.911-1.865,8.075-4.452l9.861.4C252.685,334.355,254.088,334.232,254.62,334.589Zm-43.5-7.8-3.5,1.094-6.567,8.186,4.311-1.9Zm24.509,4.514c-.216-.048-.437-.09-.668-.126-8.108-1.279-25.749,4.718-33.9,4.892l-5.335-5.512c-.471-.487-.646-.508-1.385-.508h-3.084l3.026,1.685,4.02,6.193c10.874-.508,21.182-3.01,30.6-4a28.175,28.175,0,0,1,4.672-.3c.1.8-.087,2.626-1.353,3.313C234.038,336.768,236.005,333.528,235.626,331.307Z" transform="translate(-2.855 -2.386)"/><path class="d" d="M376.879,354.778c-4.238,0-6.617-3.157-6.617-8.736V345.7c0-5.622,2.508-8.736,6.487-8.736,3.114,0,4.844,1.73,5.19,4.887h9.125c-.736-8.173-6.314-11.893-14.358-11.893-9.038,0-15.785,6.271-15.785,15.785v.346c0,9.471,5.319,15.785,16.131,15.785,8,0,13.8-4.152,14.4-12.152h-8.822A5.323,5.323,0,0,1,376.879,354.778Zm25.516-11.547v-4.5h-7.741v22.617h7.741V350.626c0-3.632,2.595-5.1,7.309-4.973v-7.223A7.129,7.129,0,0,0,402.395,343.231Zm21.581-5.1c-6.833,0-12.238,4.584-12.238,11.849v.346c0,7.395,5.19,11.546,12.283,11.546,6.833,0,10.768-2.9,11.46-8h-7.266c-.3,1.514-1.383,2.681-3.935,2.681-2.767,0-4.5-1.73-4.714-4.714H435.48V349.8C435.48,341.674,430.16,338.128,423.976,338.128Zm-4.324,9.341c.389-2.725,1.989-4.238,4.324-4.238,2.509,0,3.849,1.514,3.98,4.238Zm41.388,4.8-3.374-13.535h-6.227l-3.806,13.535-3.286-13.535h-8.087l6.832,22.617h7.526l3.5-12.627,3.373,12.627h7.4l7.179-22.617h-7.352Zm23.742,3.936c-2.942,0-4.455-2.032-4.455-5.969v-.346c0-3.806,1.6-5.751,4.325-5.751,2.249,0,3.286,1.168,3.632,3.286h7.266c-.433-6.876-5.535-9.3-11.07-9.3-6.661,0-12.067,4.325-12.067,11.849v.346c0,7.611,5.146,11.546,11.893,11.546,7.309,0,11.157-3.719,11.374-9.427h-6.964C488.458,354.908,486.944,356.205,484.782,356.205Zm29.235-18.077a7.984,7.984,0,0,0-7.439,4.239V328.787h-7.742v32.564h7.742V348.68c0-2.9,1.556-4.281,3.848-4.281,2.249,0,3.244,1.254,3.244,3.805v13.147h7.741v-14.7C521.413,340.853,518.385,338.128,514.018,338.128Zm12.022,23.223h7.74V338.734h-7.74Zm3.849-32.781a4.01,4.01,0,1,0,4.281,4.022A4.041,4.041,0,0,0,529.889,328.57Zm19.722,9.558c-6.833,0-12.24,4.584-12.24,11.849v.346c0,7.395,5.191,11.546,12.282,11.546,6.833,0,10.769-2.9,11.46-8H553.85c-.3,1.514-1.386,2.681-3.936,2.681-2.768,0-4.5-1.73-4.714-4.714h15.914V349.8C561.113,341.674,555.795,338.128,549.611,338.128Zm-4.326,9.341c.39-2.725,1.99-4.238,4.326-4.238,2.508,0,3.848,1.514,3.978,4.238ZM575.9,334.279a7.076,7.076,0,0,1,2.119.3v-5.666a13.786,13.786,0,0,0-3.545-.476c-5.363,0-8.866,2.681-8.866,8.3v1.99h-2.854v5.275h2.854v17.342h7.7V344.009h4.584v-5.275H573.31v-1.99A2.272,2.272,0,0,1,575.9,334.279Z" transform="translate(-89.939 -14.289)"/><path class="e" d="M373.022,420.991c-2.094-.3-2.5-.794-2.5-1.773,0-.929.709-1.587,2.076-1.587,1.386,0,2.111.54,2.33,1.806h2.061c-.236-2.313-1.79-3.495-4.391-3.495-2.516,0-4.2,1.485-4.2,3.462,0,2.263,1.368,3.14,4.256,3.53,1.959.321,2.517.743,2.517,1.858s-.946,1.858-2.28,1.858c-2.043,0-2.533-1.013-2.685-2.229H368.04c.169,2.279,1.554,3.917,4.847,3.917,2.668,0,4.442-1.638,4.442-3.732C377.329,422.19,375.859,421.379,373.022,420.991Zm11.6.1-2.719-5h-2.483l4,6.84v5.235h2.263V422.95l3.782-6.857h-2.195Zm11.937-.1c-2.095-.3-2.5-.794-2.5-1.773,0-.929.71-1.587,2.077-1.587,1.385,0,2.111.54,2.33,1.806h2.061c-.236-2.313-1.791-3.495-4.391-3.495-2.516,0-4.2,1.485-4.2,3.462,0,2.263,1.368,3.14,4.256,3.53,1.958.321,2.517.743,2.517,1.858s-.946,1.858-2.28,1.858c-2.044,0-2.534-1.013-2.686-2.229h-2.162c.169,2.279,1.554,3.917,4.847,3.917,2.668,0,4.442-1.638,4.442-3.732C400.864,422.19,399.4,421.379,396.557,420.991Zm6.888-3.124h3.36v10.3h2.263v-10.3h3.359v-1.774h-8.983Zm14.724,5h4.254v-1.689h-4.254v-3.31h5.3v-1.774h-7.55v12.075h7.835V426.4h-5.588Zm15.483,1.47-3.175-8.242H427.47v12.075H429.5v-9.12l3.663,9.12h.728l3.6-9.12v9.12h2.247V416.093h-2.973Zm14.771-3.344c-2.095-.3-2.5-.794-2.5-1.773,0-.929.707-1.587,2.076-1.587a2.012,2.012,0,0,1,2.332,1.806h2.059c-.236-2.313-1.79-3.495-4.391-3.495-2.516,0-4.205,1.485-4.205,3.462,0,2.263,1.369,3.14,4.256,3.53,1.959.321,2.517.743,2.517,1.858s-.946,1.858-2.28,1.858c-2.044,0-2.534-1.013-2.686-2.229h-2.162c.17,2.279,1.553,3.917,4.847,3.917,2.667,0,4.442-1.638,4.442-3.732C452.73,422.19,451.26,421.379,448.423,420.991Z" transform="translate(-93.546 -58.625)"/><g transform="translate(493.455 312.078)"><path class="f" d="M820.411,332.485a5.2,5.2,0,0,1-7.065.011,4.536,4.536,0,0,1-1.444-3.419,4.616,4.616,0,0,1,1.444-3.429,4.854,4.854,0,0,1,3.527-1.411,4.9,4.9,0,0,1,3.549,1.4,4.77,4.77,0,0,1-.011,6.848Zm-6.4-.543a4.245,4.245,0,0,0,5.741-.022,4.157,4.157,0,0,0,.022-5.741,3.967,3.967,0,0,0-2.9-1.118,3.864,3.864,0,0,0-4.016,4.016A3.8,3.8,0,0,0,814.008,331.942Zm1.02-.564v-4.754h1.953q1.975,0,1.976,1.541v.022a1.285,1.285,0,0,1-.8,1.259l1.085,1.932h-1.563l-.868-1.628h-.261v1.628Zm1.519-2.6h.326q.608,0,.608-.5v-.022q0-.477-.608-.478h-.326Z" transform="translate(-811.902 -324.237)"/></g></g></svg>